<svg width="32" height="32" viewBox="0 0 32 32" fill="none" xmlns="http://www.w3.org/2000/svg">
  <rect width="32" height="32" rx="8" fill="#3B82F6"/>
  <rect x="4" y="4" width="24" height="24" rx="4" fill="#1E40AF"/>
  
  <!-- Calculator Display -->
  <rect x="6" y="6" width="20" height="6" rx="2" fill="#F3F4F6"/>
  <text x="24" y="10.5" text-anchor="end" fill="#1F2937" font-family="monospace" font-size="4" font-weight="bold">123.45</text>
  
  <!-- Calculator Buttons -->
  <!-- Row 1 -->
  <rect x="6" y="14" width="4" height="3" rx="1" fill="#EF4444"/>
  <rect x="11" y="14" width="4" height="3" rx="1" fill="#EF4444"/>
  <rect x="16" y="14" width="4" height="3" rx="1" fill="#EF4444"/>
  <rect x="21" y="14" width="5" height="3" rx="1" fill="#F59E0B"/>
  
  <!-- Row 2 -->
  <rect x="6" y="18" width="4" height="3" rx="1" fill="#6B7280"/>
  <rect x="11" y="18" width="4" height="3" rx="1" fill="#6B7280"/>
  <rect x="16" y="18" width="4" height="3" rx="1" fill="#6B7280"/>
  <rect x="21" y="18" width="5" height="3" rx="1" fill="#F59E0B"/>
  
  <!-- Row 3 -->
  <rect x="6" y="22" width="4" height="3" rx="1" fill="#6B7280"/>
  <rect x="11" y="22" width="4" height="3" rx="1" fill="#6B7280"/>
  <rect x="16" y="22" width="4" height="3" rx="1" fill="#6B7280"/>
  <rect x="21" y="22" width="5" height="6" rx="1" fill="#10B981"/>
  
  <!-- Row 4 -->
  <rect x="6" y="26" width="9" height="3" rx="1" fill="#6B7280"/>
  <rect x="16" y="26" width="4" height="3" rx="1" fill="#6B7280"/>
  
  <!-- Button Labels -->
  <text x="8" y="16" text-anchor="middle" fill="white" font-family="Arial" font-size="2" font-weight="bold">C</text>
  <text x="13" y="16" text-anchor="middle" fill="white" font-family="Arial" font-size="2" font-weight="bold">±</text>
  <text x="18" y="16" text-anchor="middle" fill="white" font-family="Arial" font-size="2" font-weight="bold">%</text>
  <text x="23.5" y="16" text-anchor="middle" fill="white" font-family="Arial" font-size="2" font-weight="bold">÷</text>
  
  <text x="8" y="20" text-anchor="middle" fill="white" font-family="Arial" font-size="2" font-weight="bold">7</text>
  <text x="13" y="20" text-anchor="middle" fill="white" font-family="Arial" font-size="2" font-weight="bold">8</text>
  <text x="18" y="20" text-anchor="middle" fill="white" font-family="Arial" font-size="2" font-weight="bold">9</text>
  <text x="23.5" y="20" text-anchor="middle" fill="white" font-family="Arial" font-size="2" font-weight="bold">×</text>
  
  <text x="8" y="24" text-anchor="middle" fill="white" font-family="Arial" font-size="2" font-weight="bold">4</text>
  <text x="13" y="24" text-anchor="middle" fill="white" font-family="Arial" font-size="2" font-weight="bold">5</text>
  <text x="18" y="24" text-anchor="middle" fill="white" font-family="Arial" font-size="2" font-weight="bold">6</text>
  <text x="23.5" y="25" text-anchor="middle" fill="white" font-family="Arial" font-size="2" font-weight="bold">=</text>
  
  <text x="10.5" y="28" text-anchor="middle" fill="white" font-family="Arial" font-size="2" font-weight="bold">0</text>
  <text x="18" y="28" text-anchor="middle" fill="white" font-family="Arial" font-size="2" font-weight="bold">.</text>
</svg>